<svg width="96" height="32" viewBox="0 0 96 32" fill="none" xmlns="http://www.w3.org/2000/svg">
<path d="M15.0108 14.1918V28.3837H16.7166H18.4155L18.4428 21.6767C18.4633 15.1812 18.4701 14.956 18.6066 14.3624C19.0432 12.4519 19.8415 10.9986 21.1515 9.68863C22.482 8.35132 23.9694 7.54621 25.8117 7.1573C26.7191 6.95943 28.3293 6.94578 29.2368 7.11636C33.0099 7.8396 35.821 10.5961 36.6602 14.3965C36.7967 15.0242 36.8035 15.2426 36.824 21.7108L36.8513 28.3837H38.5502H40.256V22.011C40.256 15.2903 40.2355 14.7854 39.9421 13.4481C39.369 10.8758 37.8679 8.33768 35.937 6.67969C32.0547 3.34324 26.6782 2.61317 22.1409 4.81018C20.9059 5.40378 19.8756 6.12702 18.9204 7.05495L18.4223 7.53256V3.76626V-3.62396e-05H16.7166H15.0108V14.1918Z" fill="black"/>
<path d="M11.258 3.41829C8.41277 3.73897 5.70403 5.04899 3.68442 7.08907C1.61023 9.1769 0.395734 11.7355 0.0750531 14.6831C0.027292 15.0993 0 17.7466 0 21.8677V28.3837H1.70575H3.40468L3.43197 21.5402L3.45244 14.7035L3.62984 13.9871C4.0938 12.1313 4.84433 10.7803 6.14071 9.48394C7.74411 7.87371 9.71596 6.97307 12.029 6.78203L12.6226 6.73427V5.04216V3.34324L12.1995 3.35006C11.9607 3.35688 11.5377 3.38417 11.258 3.41829Z" fill="black"/>
<path d="M81.4872 3.41833C79.2834 3.6776 77.1614 4.51684 75.326 5.86779C74.5482 6.44092 73.2177 7.7987 72.6514 8.59699C70.2565 11.9812 69.6493 16.0818 70.9525 19.9846C72.9721 26.0298 79.3107 29.6391 85.5605 28.3018C92.1516 26.8963 96.4773 20.4554 95.3243 13.7825C94.6283 9.7569 92.0151 6.31811 88.3239 4.5646C86.236 3.57526 83.7456 3.15224 81.4872 3.41833ZM84.7759 6.95947C86.6727 7.3825 88.0305 8.12621 89.3882 9.47716C91.1963 11.2921 92.0697 13.3867 92.0697 15.9317C92.0697 18.4904 91.1759 20.6532 89.3814 22.4545C88.0305 23.8123 86.5567 24.6038 84.5985 25.02C83.8139 25.1837 82.0808 25.1837 81.2416 25.02C77.4616 24.2626 74.6028 21.4038 73.8454 17.6238C73.6817 16.7846 73.6817 15.0516 73.8454 14.2669C74.132 12.9432 74.5414 11.9334 75.2305 10.9032C76.7589 8.60382 79.1401 7.16416 82.0126 6.79572C82.5448 6.72749 84.1755 6.82301 84.7759 6.95947Z" fill="black"/>
<path d="M42.6438 10.1459C42.6438 14.1783 42.6711 16.9143 42.712 17.2964C43.3943 23.2392 48.0476 27.8652 53.9836 28.5134C56.8015 28.8204 59.7764 28.104 62.1576 26.5416C62.9491 26.023 63.338 25.7092 63.9862 25.0814L64.4774 24.6038V28.3019V32H66.1832H67.8889V17.8081V3.61627H66.1832H64.4842L64.4569 10.3506C64.4365 16.8802 64.4297 17.1122 64.2932 17.7399C63.877 19.623 63.0651 21.1309 61.7482 22.4478C60.4177 23.7851 58.944 24.5834 57.0881 24.9859C56.1806 25.177 54.509 25.1974 53.6084 25.02C49.8967 24.2832 47.0924 21.5471 46.2463 17.8218C46.0962 17.1668 46.0962 17.0917 46.0758 10.3847L46.0485 3.61627H44.3496H42.6438V10.1459Z" fill="black"/>
</svg>
