<svg width="26" height="29" viewBox="0 0 26 29" fill="none" xmlns="http://www.w3.org/2000/svg">
<path d="M0.643799 7.14591C0.643799 11.1783 0.671091 13.9143 0.712029 14.2964C1.39433 20.2393 6.04762 24.8653 11.9836 25.5134C14.8015 25.8205 17.7764 25.1041 20.1576 23.5416C20.9491 23.023 21.338 22.7092 21.9862 22.0815L22.4774 21.6039V25.3019V29H24.1832H25.8889V14.8081V0.616297H24.1832H22.4842L22.4569 7.3506C22.4365 13.8802 22.4297 14.1122 22.2932 14.7399C21.877 16.6231 21.0651 18.131 19.7482 19.4478C18.4177 20.7851 16.944 21.5834 15.0881 21.986C14.1806 22.177 12.509 22.1975 11.6084 22.0201C7.89665 21.2832 5.0924 18.5472 4.24635 14.8218C4.09624 14.1668 4.09624 14.0917 4.07577 7.38472L4.04848 0.616297H2.34955H0.643799V7.14591Z" fill="white"/>
</svg>
