<svg width="26" height="29" viewBox="0 0 26 29" fill="none" xmlns="http://www.w3.org/2000/svg">
<path d="M0.0108032 14.1918V28.3837H1.71655H3.41548L3.44278 21.6767C3.46324 15.1812 3.47007 14.956 3.60653 14.3624C4.0432 12.452 4.84149 10.9987 6.15151 9.68866C7.48199 8.35135 8.96941 7.54624 10.8116 7.15733C11.7191 6.95946 13.3293 6.94581 14.2368 7.11639C18.0099 7.83963 20.821 10.5961 21.6602 14.3965C21.7967 15.0243 21.8035 15.2426 21.824 21.7108L21.8512 28.3837H23.5502H25.2559V22.011C25.2559 15.2903 25.2355 14.7854 24.9421 13.4481C24.3689 10.8759 22.8679 8.33771 20.937 6.67972C17.0547 3.34327 11.6781 2.61321 7.14084 4.81021C5.90588 5.40381 4.87561 6.12705 3.92039 7.05498L3.42231 7.53259V3.76629V-5.87106e-06H1.71655H0.0108032V14.1918Z" fill="white"/>
</svg>
