<svg width="26" height="26" viewBox="0 0 26 26" fill="none" xmlns="http://www.w3.org/2000/svg">
<path d="M11.4872 0.418362C9.28339 0.677636 7.16144 1.51687 5.32605 2.86782C4.54822 3.44095 3.21774 4.79873 2.65143 5.59702C0.256554 8.98123 -0.350693 13.0819 0.952501 16.9846C2.97211 23.0298 9.31068 26.6392 15.5606 25.3019C22.1516 23.8963 26.4774 17.4554 25.3243 10.7825C24.6283 6.75693 22.0151 3.31814 18.3239 1.56463C16.236 0.575291 13.7456 0.152265 11.4872 0.418362ZM14.7759 3.9595C16.6727 4.38253 18.0305 5.12624 19.3883 6.47719C21.1964 8.29211 22.0697 10.3868 22.0697 12.9318C22.0697 15.4904 21.1759 17.6533 19.3814 19.4545C18.0305 20.8123 16.5567 21.6038 14.5985 22.02C13.8139 22.1838 12.0808 22.1838 11.2416 22.02C7.46165 21.2626 4.60281 18.4038 3.84546 14.6239C3.6817 13.7846 3.6817 12.0516 3.84546 11.2669C4.13202 9.94328 4.5414 8.93347 5.23053 7.9032C6.75888 5.60385 9.14011 4.16419 12.0126 3.79575C12.5448 3.72752 14.1755 3.82304 14.7759 3.9595Z" fill="white"/>
</svg>
